<?xml version="1.0" ?><svg id="Layer_1" style="enable-background:new 0 0 32 32;" version="1.1" viewBox="0 0 32 32" xml:space="preserve" xmlns="http://www.w3.org/2000/svg" xmlns:xlink="http://www.w3.org/1999/xlink"><style type="text/css">
	.st0{fill:#222A30;}
	.st1{fill:#868687;}
	.st2{fill-rule:evenodd;clip-rule:evenodd;fill:#222A30;stroke:#222A30;stroke-width:0.776;}
	.st3{fill-rule:evenodd;clip-rule:evenodd;fill:#222A30;fill-opacity:0;stroke:#222A30;stroke-width:0.776;}
	.st4{fill:none;stroke:#222A30;stroke-width:1.5556;stroke-opacity:0.5;}
	.st5{fill:none;stroke:#222A30;stroke-width:1.5556;}
	.st6{fill:#070707;}
</style><g id="circle_x5F_spinner_x5F_8"><path class="st0" d="M10.4,9.3L6.7,5.5C9,3.5,11.9,2.2,15,2v5.3C13.3,7.5,11.7,8.2,10.4,9.3L10.4,9.3z"/><path class="st1" d="M16.8,7.3l0-5.3c3.1,0.2,6.1,1.4,8.4,3.4l-3.8,3.8C20.1,8.1,18.5,7.5,16.8,7.3L16.8,7.3z"/><path class="st0" d="M22.7,10.4l3.8-3.8C28.5,9,29.8,11.9,30,15h-5.3C24.5,13.3,23.8,11.7,22.7,10.4L22.7,10.4z"/><path class="st0" d="M24.7,16.8l5.3,0c-0.2,3.1-1.4,6.1-3.4,8.4l-3.8-3.8C23.9,20.1,24.5,18.5,24.7,16.8L24.7,16.8z"/><path class="st0" d="M21.6,22.7l3.8,3.8C23,28.5,20.1,29.8,17,30v-5.3C18.7,24.5,20.3,23.8,21.6,22.7L21.6,22.7z"/><path class="st0" d="M15.2,24.7l0,5.3c-3.1-0.2-6.1-1.4-8.4-3.4l3.8-3.8C11.9,23.9,13.5,24.5,15.2,24.7L15.2,24.7z"/><path class="st0" d="M9.3,21.6l-3.8,3.8C3.5,23,2.2,20.1,2,17h5.3C7.5,18.7,8.2,20.3,9.3,21.6L9.3,21.6z"/><path class="st0" d="M7.3,15.2l-5.3,0c0.2-3.1,1.4-6.1,3.4-8.4l3.8,3.8C8.1,11.9,7.5,13.5,7.3,15.2L7.3,15.2z"/></g></svg>